<svg width="445" height="480" fill="none" xmlns="http://www.w3.org/2000/svg"><path d="M443.944 101.088c-.146-11.251-8.768-20.545-19.923-21.573-92.703-8.707-168.356-58.456-193.297-76.653a14.79 14.79 0 00-17.488 0C188.343 21.059 112.691 70.808 19.988 79.515 8.833 80.543.26 89.837.065 101.088c-1.12 73.424 10.62 322.706 216.338 378.178 3.653.979 7.501.979 11.155 0 205.718-55.423 217.458-304.754 216.386-378.178z" fill="#262626"/><mask id="a" maskUnits="userSpaceOnUse" x="0" y="0" width="445" height="480"><path d="M443.944 101.088c-.146-11.251-8.768-20.545-19.923-21.573-92.703-8.707-168.356-58.456-193.297-76.653a14.79 14.79 0 00-17.488 0C188.343 21.059 112.691 70.808 19.988 79.515 8.833 80.543.26 89.837.065 101.088c-1.12 73.424 10.62 322.706 216.338 378.178 3.653.979 7.501.979 11.155 0 205.718-55.423 217.458-304.754 216.386-378.178z" fill="#262626"/></mask><g mask="url(#a)"><path fill="#191919" d="M222-10h243v500H222z"/></g></svg>